<?xml version="1.0" encoding="utf-8"?>
<!-- Generator: Adobe Illustrator 16.0.0, SVG Export Plug-In . SVG Version: 6.00 Build 0)  -->
<!DOCTYPE svg PUBLIC "-//W3C//DTD SVG 1.1//EN" "http://www.w3.org/Graphics/SVG/1.1/DTD/svg11.dtd">
<svg version="1.1" id="Layer_1" xmlns="http://www.w3.org/2000/svg" xmlns:xlink="http://www.w3.org/1999/xlink" x="0px" y="0px"
	 width="103px" height="102.918px" viewBox="7.125 7.208 103 102.918" enable-background="new 7.125 7.208 103 102.918"
	 xml:space="preserve">
<g id="klogo_copy">
	<polygon id="kRight_1_" points="76.486,83.84 87.359,83.84 69.577,52.16 86.208,33.008 75.048,33.008 41.266,71.434 41.266,84.387 
		58.904,64.5 69.916,83.936 72.215,83.936 60.307,62.918 62.952,59.936 	"/>
	<path id="kLeft_2_" d="M50.698,55.36l-9.433,10.768V33.055h9.433v19.228l16.917-19.312l2.666-0.002L50.698,55.32V55.36z M35,84.389
		h2V33.16h-2V84.389z"/>
	<path id="circle_1_" fill="none" stroke="#000000" stroke-width="7" stroke-miterlimit="10" d="M58.681,10.813
		c26.435,0,47.866,21.431,47.866,47.866c0,26.437-21.431,47.868-47.866,47.868c-26.438,0-47.869-21.432-47.869-47.868
		C10.812,32.244,32.243,10.813,58.681,10.813"/>
</g>
</svg>
