<?xml version="1.0" encoding="utf-8"?>
<!-- Generator: Adobe Illustrator 15.1.0, SVG Export Plug-In . SVG Version: 6.00 Build 0)  -->
<!DOCTYPE svg PUBLIC "-//W3C//DTD SVG 1.1//EN" "http://www.w3.org/Graphics/SVG/1.1/DTD/svg11.dtd">
<svg version="1.1" id="Layer_1" xmlns="http://www.w3.org/2000/svg" xmlns:xlink="http://www.w3.org/1999/xlink" x="0px" y="0px"
	 width="117.359px" height="117.359px" viewBox="0 0 117.359 117.359" enable-background="new 0 0 117.359 117.359"
	 xml:space="preserve">
<path fill="none" stroke="#F7941E" d="M274.705-664.441"/>
<g>
	<path fill="#000" d="M109.346,58.679c0,27.982-22.685,50.668-50.667,50.668S8.013,86.662,8.013,58.679
		c0-27.98,22.684-50.666,50.666-50.666S109.346,30.698,109.346,58.679z M58.679,3.173c-30.656,0-55.506,24.852-55.506,55.506
		s24.85,55.508,55.506,55.508s55.508-24.854,55.508-55.508S89.335,3.173,58.679,3.173z M76.487,83.84H87.36L69.577,52.16
		l16.631-19.152h-11.16L41.266,71.433v12.954L58.904,64.5l11.012,19.435h2.299L60.306,62.918l2.646-2.982L76.487,83.84z
		 M50.698,55.32l19.583-22.35l-2.666,0.001L50.698,52.283V33.055h-9.433v33.073l9.433-10.768V55.32z M35,84.389h2V33.16h-2V84.389z"
		/>
</g>
</svg>
